# Blender v2.79 (sub 0) OBJ File: 'alien.blend'
# www.blender.org
mtllib alien.mtl
o Cube
v 1.967492 -0.557021 0.278670
v -1.692862 -0.505873 0.307879
v 1.729762 0.700019 0.456597
v -1.691227 0.597572 0.082997
v -1.232648 -0.628053 0.396542
v -1.395048 0.650787 0.081309
v -0.496036 -0.628053 0.561182
v -0.474261 0.621282 0.478726
v 1.390046 -0.553103 0.529767
v 1.300377 0.622735 0.561182
v 0.403286 -0.628053 0.561182
v 0.416337 0.635312 0.409786
v 1.777609 0.371358 0.426928
v -1.837200 0.332258 0.183561
v -1.395048 0.357527 0.081309
v -0.496036 0.329475 0.561182
v 1.300377 0.329475 0.561182
v 0.403285 0.329475 0.561182
v -1.232648 -0.330090 0.396542
v -0.496036 -0.330090 0.561182
v 1.300377 -0.330090 0.561182
v 0.403286 -0.330090 0.561182
v 1.877824 -0.334008 0.310085
v -1.867170 -0.330090 0.396542
v -0.623727 0.215141 2.043801
v -1.104958 0.215141 1.373334
v -1.104958 -0.215756 1.373334
v -0.623726 -0.215756 2.043801
v 1.138377 0.087172 1.909194
v 0.565286 0.087172 2.210190
v 1.138377 -0.210983 1.909193
v 0.565286 -0.210983 2.210190
v -1.867170 -0.330090 0.396542
v -1.837200 0.332258 0.183561
v -2.225477 -0.069902 0.081353
v -2.219131 0.070342 0.036257
v 1.967492 -0.557021 -0.278670
v -1.692862 -0.505873 -0.307879
v 1.729762 0.700019 -0.456597
v -1.691227 0.597572 -0.082997
v 1.863117 -0.628053 0.000000
v -1.867170 -0.628053 0.000000
v 1.863117 0.622735 0.000000
v -1.867170 0.462823 0.000000
v -1.232648 -0.628053 -0.396542
v -1.395048 0.650787 -0.081309
v -1.232648 0.622735 0.000000
v -1.232648 -0.628053 0.000000
v -0.496036 0.622735 0.000000
v -0.496036 -0.628053 -0.561182
v -0.474261 0.621282 -0.478726
v -0.496035 -0.628053 0.000000
v 1.300377 0.622735 0.000000
v 1.390046 -0.553103 -0.529767
v 1.300377 0.622735 -0.561182
v 1.300378 -0.628053 0.000000
v 0.403286 -0.628053 -0.561182
v 0.416337 0.635312 -0.409786
v 0.403286 -0.628053 0.000000
v 0.403286 0.622735 0.000000
v 1.777609 0.371358 -0.426928
v -1.837200 0.332258 -0.183561
v -1.867170 0.329475 0.000000
v 1.863117 0.329475 0.000000
v -1.395048 0.357527 -0.081309
v -0.496036 0.329475 -0.561182
v 1.300377 0.329475 -0.561182
v 0.403285 0.329475 -0.561182
v -1.867170 -0.330090 0.000000
v 1.863117 -0.330090 0.000000
v -1.232648 -0.330090 -0.396542
v -0.496036 -0.330090 -0.561182
v 1.300377 -0.330090 -0.561182
v 0.403286 -0.330090 -0.561182
v 1.877824 -0.334008 -0.310085
v -1.867170 -0.330090 -0.396542
v -0.623727 0.215141 -2.043801
v -1.104958 0.215141 -1.373334
v -1.104958 -0.215756 -1.373334
v -0.623726 -0.215756 -2.043801
v 1.138377 0.087172 -1.909194
v 0.565286 0.087172 -2.210190
v 1.138377 -0.210983 -1.909193
v 0.565286 -0.210983 -2.210190
v -1.867170 -0.330090 -0.396542
v -1.837200 0.332258 -0.183561
v -1.867170 0.329475 0.000000
v -1.867170 -0.330090 0.000000
v -2.225477 -0.069902 -0.081353
v -2.219131 0.070342 -0.036257
v -2.225477 0.069753 0.000000
v -2.225477 -0.069902 0.000000
vn 0.0000 -0.9295 0.3689
vn -0.1480 0.8057 -0.5736
vn 0.9805 0.0000 0.1964
vn 0.2050 0.2463 0.9473
vn -0.9869 0.0000 0.1611
vn -0.4462 0.2740 0.8519
vn 0.0000 1.0000 0.0030
vn 0.0000 -1.0000 0.0000
vn -0.0181 0.9994 -0.0301
vn 0.0000 0.2719 0.9623
vn 0.2708 0.0000 0.9626
vn 0.0000 0.9860 -0.1669
vn 0.0000 -0.9901 0.1401
vn -0.0000 -0.0000 1.0000
vn 0.0142 0.9999 0.0000
vn -0.0000 0.9842 0.1769
vn 0.3988 0.0000 0.9171
vn -0.9697 -0.1361 0.2027
vn 0.0000 0.3061 0.9520
vn 0.9989 0.0000 -0.0474
vn 0.9365 0.0000 -0.3508
vn -0.1892 0.0000 0.9819
vn -0.8702 0.0000 0.4927
vn -0.2181 -0.0000 0.9759
vn 0.3988 0.0312 0.9165
vn 0.0409 -0.1232 0.9915
vn -0.8124 -0.0000 0.5831
vn -0.0267 -0.9925 0.1197
vn -0.0953 0.9931 0.0684
vn 0.9963 0.0000 0.0858
vn 0.4650 -0.0000 0.8853
vn 0.9929 0.0000 0.1193
vn -0.9952 -0.0000 0.0978
vn 0.0360 -0.9970 0.0685
vn -0.5852 0.8066 0.0833
vn -0.9990 0.0452 0.0000
vn -0.5085 0.2844 0.8128
vn -0.5876 -0.8092 0.0000
vn -0.2566 -0.9665 0.0000
vn -0.1680 0.6667 0.7262
vn 0.9805 0.0000 -0.1964
vn 0.0057 0.0000 -1.0000
vn -0.6624 0.5551 -0.5030
vn -0.4462 0.2740 -0.8519
vn 0.0000 1.0000 -0.0030
vn 0.0624 0.4406 -0.8955
vn 0.2451 -0.0517 -0.9681
vn 0.0000 0.9860 0.1669
vn 0.0870 -0.9727 -0.2153
vn -0.0000 -0.0000 -1.0000
vn 0.0000 0.9995 0.0307
vn 0.0791 -0.9888 -0.1265
vn -0.0000 0.9842 -0.1769
vn 0.2785 -0.1183 -0.9531
vn -0.9697 -0.1361 -0.2027
vn 0.1776 0.4445 -0.8780
vn 0.9989 0.0000 0.0474
vn 0.9365 0.0000 0.3508
vn -0.1892 0.0000 -0.9819
vn -0.7101 -0.7041 0.0000
vn -0.2181 -0.0000 -0.9759
vn 0.3988 0.0312 -0.9165
vn 0.0409 -0.1232 -0.9915
vn -0.8124 -0.0000 -0.5831
vn -0.0267 -0.9925 -0.1197
vn -0.0312 0.9927 -0.1164
vn 0.9963 0.0000 -0.0858
vn 0.4650 -0.0000 -0.8853
vn 0.9929 0.0000 -0.1193
vn -0.9952 -0.0000 -0.0978
vn 0.0000 -0.9961 -0.0880
vn -0.5852 0.8066 -0.0833
vn -0.5085 0.2844 -0.8128
vn -0.1680 0.6667 -0.7262
vn 0.9585 0.1160 0.2603
vn 0.0057 0.0000 1.0000
vn -0.6624 0.5551 0.5030
vn -0.3963 0.0000 0.9181
vn 0.0956 0.9843 -0.1485
vn 0.0624 0.4406 0.8955
vn 0.2451 -0.0517 0.9681
vn -0.1771 0.9842 -0.0000
vn 0.0870 -0.9727 0.2153
vn -0.1451 0.4439 0.8842
vn 0.0000 0.9995 -0.0307
vn 0.0791 -0.9888 0.1265
vn 0.0725 0.9878 0.1380
vn 0.2785 -0.1183 0.9531
vn -0.9916 -0.0000 0.1296
vn 0.1776 0.4445 0.8780
vn 0.9768 0.1081 0.1850
vn 0.9252 0.3775 -0.0391
vn 0.0000 -0.4503 0.8929
vn -0.0953 -0.9931 0.0684
vn -0.0312 0.9927 0.1164
vn 0.0000 -0.9961 0.0880
vn -0.5846 0.8064 0.0892
vn -0.9850 0.0000 0.1724
vn 0.0000 -0.9295 -0.3689
vn -0.1480 0.8057 0.5736
vn 0.9585 0.1160 -0.2603
vn 0.2050 0.2463 -0.9473
vn -0.9869 0.0000 -0.1611
vn -0.3963 0.0000 -0.9181
vn 0.0956 0.9843 0.1485
vn -0.0181 0.9994 0.0301
vn 0.0000 0.2719 -0.9623
vn 0.2708 0.0000 -0.9626
vn 0.0000 -0.9901 -0.1401
vn -0.1451 0.4439 -0.8842
vn 0.0725 0.9878 -0.1380
vn 0.3988 0.0000 -0.9171
vn -0.9916 -0.0000 -0.1296
vn 0.0000 0.3061 -0.9520
vn 0.9768 0.1081 -0.1850
vn 0.9252 0.3775 0.0391
vn 0.0000 -0.4503 -0.8929
vn -0.8702 0.0000 -0.4927
vn -0.0953 -0.9931 -0.0684
vn -0.0953 0.9931 -0.0684
vn 0.0360 -0.9970 -0.0685
vn -0.5846 0.8064 -0.0892
vn -0.9850 0.0000 -0.1724
usemtl Material
s off
f 48//1 2//1 42//1
f 47//2 4//2 6//2
f 43//3 13//3 64//3
f 15//4 4//4 14//4
f 14//5 44//5 63//5
f 8//6 15//6 16//6
f 47//7 8//7 49//7
f 52//8 5//8 48//8
f 11//8 52//8 59//8
f 60//9 8//9 12//9
f 18//10 8//10 16//10
f 13//11 10//11 17//11
f 53//12 3//12 43//12
f 41//13 9//13 56//13
f 10//14 18//14 17//14
f 53//15 12//15 10//15
f 56//8 11//8 59//8
f 18//16 29//16 17//16
f 23//17 17//17 21//17
f 18//14 20//14 22//14
f 19//18 26//18 15//18
f 69//14 33//14 88//14
f 19//19 14//19 24//19
f 64//20 23//20 70//20
f 70//21 1//21 41//21
f 19//22 2//22 5//22
f 2//23 69//23 42//23
f 20//24 5//24 7//24
f 22//14 7//14 11//14
f 23//25 9//25 1//25
f 21//26 11//26 9//26
f 28//27 26//27 27//27
f 20//28 27//28 19//28
f 16//29 26//29 25//29
f 16//30 28//30 20//30
f 29//31 32//31 31//31
f 21//32 29//32 31//32
f 22//33 30//33 18//33
f 22//34 31//34 32//34
f 87//35 36//35 34//35
f 24//14 34//14 33//14
f 14//14 87//14 34//14
f 36//36 92//36 35//36
f 34//37 35//37 33//37
f 88//38 35//38 92//38
f 48//39 38//39 45//39
f 47//40 40//40 44//40
f 61//41 43//41 64//41
f 65//42 40//42 46//42
f 62//43 44//43 40//43
f 65//44 51//44 66//44
f 51//45 47//45 49//45
f 52//8 45//8 50//8
f 52//8 57//8 59//8
f 60//45 51//45 49//45
f 68//46 51//46 58//46
f 61//47 55//47 39//47
f 39//48 53//48 43//48
f 41//49 54//49 37//49
f 68//50 55//50 67//50
f 53//51 58//51 60//51
f 56//52 57//52 54//52
f 81//53 68//53 67//53
f 75//54 67//54 61//54
f 72//50 68//50 74//50
f 78//55 71//55 65//55
f 69//14 85//14 76//14
f 71//56 62//56 65//56
f 75//57 64//57 70//57
f 37//58 70//58 41//58
f 38//59 71//59 45//59
f 38//60 69//60 76//60
f 45//61 72//61 50//61
f 50//50 74//50 57//50
f 54//62 75//62 37//62
f 57//63 73//63 54//63
f 79//64 77//64 80//64
f 79//65 72//65 71//65
f 66//66 78//66 65//66
f 80//67 66//67 72//67
f 84//68 81//68 83//68
f 73//69 81//69 67//69
f 82//70 74//70 68//70
f 74//71 83//71 73//71
f 90//72 87//72 86//72
f 76//14 86//14 62//14
f 62//14 87//14 63//14
f 63//14 88//14 69//14
f 92//36 90//36 89//36
f 89//73 86//73 85//73
f 88//38 89//38 85//38
f 48//39 5//39 2//39
f 47//74 44//74 4//74
f 43//75 3//75 13//75
f 15//76 6//76 4//76
f 14//77 4//77 44//77
f 8//78 6//78 15//78
f 47//79 6//79 8//79
f 52//8 7//8 5//8
f 11//8 7//8 52//8
f 60//7 49//7 8//7
f 18//80 12//80 8//80
f 13//81 3//81 10//81
f 53//82 10//82 3//82
f 41//83 1//83 9//83
f 10//84 12//84 18//84
f 53//85 60//85 12//85
f 56//86 9//86 11//86
f 18//87 30//87 29//87
f 23//88 13//88 17//88
f 18//14 16//14 20//14
f 19//89 27//89 26//89
f 69//14 24//14 33//14
f 19//90 15//90 14//90
f 64//91 13//91 23//91
f 70//92 23//92 1//92
f 19//93 24//93 2//93
f 2//60 24//60 69//60
f 20//24 19//24 5//24
f 22//14 20//14 7//14
f 23//25 21//25 9//25
f 21//14 22//14 11//14
f 28//27 25//27 26//27
f 20//94 28//94 27//94
f 16//95 15//95 26//95
f 16//30 25//30 28//30
f 29//31 30//31 32//31
f 21//32 17//32 29//32
f 22//33 32//33 30//33
f 22//96 21//96 31//96
f 87//97 91//97 36//97
f 24//14 14//14 34//14
f 14//14 63//14 87//14
f 36//98 91//98 92//98
f 34//37 36//37 35//37
f 88//38 33//38 35//38
f 48//99 42//99 38//99
f 47//100 46//100 40//100
f 61//101 39//101 43//101
f 65//102 62//102 40//102
f 62//103 63//103 44//103
f 65//104 46//104 51//104
f 51//105 46//105 47//105
f 52//8 48//8 45//8
f 52//8 50//8 57//8
f 60//106 58//106 51//106
f 68//107 66//107 51//107
f 61//108 67//108 55//108
f 39//82 55//82 53//82
f 41//109 56//109 54//109
f 68//110 58//110 55//110
f 53//15 55//15 58//15
f 56//8 59//8 57//8
f 81//111 82//111 68//111
f 75//112 73//112 67//112
f 72//50 66//50 68//50
f 78//113 79//113 71//113
f 69//14 88//14 85//14
f 71//114 76//114 62//114
f 75//115 61//115 64//115
f 37//116 75//116 70//116
f 38//117 76//117 71//117
f 38//118 42//118 69//118
f 45//61 71//61 72//61
f 50//50 72//50 74//50
f 54//62 73//62 75//62
f 57//50 74//50 73//50
f 79//64 78//64 77//64
f 79//119 80//119 72//119
f 66//120 77//120 78//120
f 80//67 77//67 66//67
f 84//68 82//68 81//68
f 73//69 83//69 81//69
f 82//70 84//70 74//70
f 74//121 84//121 83//121
f 90//122 91//122 87//122
f 76//14 85//14 86//14
f 62//14 86//14 87//14
f 63//14 87//14 88//14
f 92//123 91//123 90//123
f 89//73 90//73 86//73
f 88//38 92//38 89//38
