# Blender v2.79 (sub 0) OBJ File: 'fighter.blend'
# www.blender.org
mtllib fighter.mtl
o Cube
v 1.108679 -0.435880 -1.239178
v 0.557534 -0.435880 3.285805
v 0.822036 0.664157 -1.310775
v 0.471558 0.552905 0.901571
v 1.108679 -0.435880 0.803528
v 0.822036 0.664157 -0.407918
v 3.256046 -0.456615 -3.338259
v 1.359107 -0.095391 -0.912643
v 2.310245 -0.427996 0.471048
v 1.359107 -0.095391 -0.009786
v 1.108679 -0.435880 1.961329
v 0.658564 0.612266 0.202863
v 0.979997 -0.136228 1.458605
v 0.574476 -0.132840 2.555092
v -1.108679 -0.435880 -1.239178
v -0.557534 -0.435880 3.285805
v -0.822036 0.664157 -1.310775
v -0.471558 0.552905 0.901571
v -1.108679 -0.435880 0.803528
v -0.822036 0.664157 -0.407918
v -3.256046 -0.456615 -3.338259
v -1.359107 -0.095391 -0.912643
v -2.310245 -0.427996 0.471048
v -1.359107 -0.095391 -0.009786
v 0.000000 -0.435880 -1.239178
v 0.000000 -0.435880 4.045028
v 0.000000 0.670047 -1.269994
v 0.000000 0.622164 0.821401
v 0.000000 0.670047 -0.367137
v 0.000000 -0.435880 0.803528
v -1.108679 -0.435880 1.961329
v -0.658564 0.612266 0.202863
v 0.000000 0.647713 0.187229
v 0.000000 -0.435880 1.961329
v -0.979997 -0.136228 1.458605
v -0.574476 -0.132840 2.555092
v 0.000000 -0.063759 2.647728
vn 0.6949 0.6584 0.2892
vn 0.2557 0.9651 0.0562
vn -0.4435 0.7685 -0.4612
vn 0.8165 0.5773 0.0000
vn 0.0066 -1.0000 0.0000
vn 0.5937 0.6606 0.4594
vn 0.0000 -1.0000 0.0000
vn 0.0072 1.0000 -0.0000
vn -0.0497 -0.0278 -0.9984
vn 0.3307 0.9119 0.2429
vn 0.0115 0.9961 0.0877
vn 0.9189 0.3946 -0.0000
vn -0.6703 0.7002 0.2458
vn -0.2557 0.9651 0.0562
vn -0.7098 0.1400 -0.6904
vn -0.8165 0.5773 0.0000
vn -0.0066 -1.0000 0.0000
vn -0.1081 0.9047 0.4120
vn -0.0072 1.0000 -0.0000
vn -0.0000 -0.0649 -0.9979
vn -0.1707 0.9088 0.3808
vn -0.0115 0.9961 0.0877
vn -0.9189 0.3946 -0.0000
vn 0.6703 0.7002 0.2458
vn 0.3301 0.9439 0.0000
vn 0.7098 0.1400 -0.6904
vn -0.0031 -1.0000 0.0068
vn 0.1081 0.9047 0.4120
vn 0.1707 0.9088 0.3808
vn 0.0528 0.9978 0.0402
vn 0.8227 0.5040 0.2630
vn -0.6949 0.6584 0.2892
vn -0.3301 0.9439 0.0000
vn 0.4435 0.7685 -0.4612
vn 0.0031 -1.0000 0.0068
vn -0.5937 0.6606 0.4594
vn 0.0497 -0.0278 -0.9984
vn -0.3307 0.9119 0.2429
vn -0.0528 0.9978 0.0402
vn -0.8227 0.5040 0.2630
vn 0.0512 0.9939 0.0981
vn 0.0775 0.9333 0.3505
vn 0.6736 0.6966 0.2470
vn -0.0512 0.9939 0.0981
vn -0.1693 0.9141 0.3685
vn -0.6736 0.6966 0.2470
vn 0.1386 0.9896 0.0399
vn 0.1693 0.9141 0.3685
vn 0.6780 0.6946 0.2405
vn -0.1386 0.9896 0.0399
vn -0.0775 0.9333 0.3505
vn -0.6780 0.6946 0.2405
usemtl Material
s off
f 11//1 14//1 2//1
f 8//2 9//2 7//2
f 1//3 8//3 7//3
f 6//4 8//4 3//4
f 1//5 9//5 5//5
f 5//6 10//6 6//6
f 5//7 25//7 1//7
f 27//8 6//8 3//8
f 3//9 25//9 27//9
f 2//10 37//10 26//10
f 2//7 34//7 11//7
f 11//7 30//7 5//7
f 29//11 12//11 6//11
f 13//12 5//12 12//12
f 31//13 36//13 35//13
f 23//14 22//14 21//14
f 15//15 22//15 17//15
f 22//16 20//16 17//16
f 23//17 15//17 19//17
f 19//18 24//18 23//18
f 25//7 19//7 15//7
f 20//19 27//19 17//19
f 17//20 25//20 15//20
f 16//21 37//21 36//21
f 34//7 16//7 31//7
f 19//7 34//7 31//7
f 32//22 29//22 20//22
f 35//23 32//23 19//23
f 11//24 13//24 14//24
f 8//25 10//25 9//25
f 1//26 3//26 8//26
f 6//4 10//4 8//4
f 1//27 7//27 9//27
f 5//28 9//28 10//28
f 5//7 30//7 25//7
f 27//8 29//8 6//8
f 3//20 1//20 25//20
f 2//29 14//29 37//29
f 2//7 26//7 34//7
f 11//7 34//7 30//7
f 29//30 33//30 12//30
f 11//12 5//12 13//12
f 5//31 6//31 12//31
f 31//32 16//32 36//32
f 23//33 24//33 22//33
f 15//34 21//34 22//34
f 22//16 24//16 20//16
f 23//35 21//35 15//35
f 19//36 20//36 24//36
f 25//7 30//7 19//7
f 20//19 29//19 27//19
f 17//37 27//37 25//37
f 16//38 26//38 37//38
f 34//7 26//7 16//7
f 19//7 30//7 34//7
f 32//39 33//39 29//39
f 20//40 19//40 32//40
f 19//23 31//23 35//23
usemtl Material.001
f 33//41 4//41 12//41
f 37//42 4//42 28//42
f 13//43 4//43 14//43
f 18//44 33//44 32//44
f 37//45 18//45 36//45
f 18//46 35//46 36//46
f 33//47 28//47 4//47
f 37//48 14//48 4//48
f 13//49 12//49 4//49
f 18//50 28//50 33//50
f 37//51 28//51 18//51
f 18//52 32//52 35//52
